<svg width="274" height="225" viewBox="0 0 274 225" fill="none" xmlns="http://www.w3.org/2000/svg">
<rect x="48.9442" y="111.682" width="37.9236" height="37.9236" rx="2" fill="transparent"/>
<rect x="49.4442" y="112.182" width="36.9236" height="36.9236" rx="1.5" stroke="#9F9F9F" stroke-opacity="0.2"/>
<rect x="86.3259" y="111.682" width="37.9236" height="37.9236" rx="2" fill="transparent"/>
<rect x="86.8259" y="112.182" width="36.9236" height="36.9236" rx="1.5" stroke="#9F9F9F" stroke-opacity="0.2"/>
<rect x="123.708" y="111.682" width="37.9236" height="37.9236" rx="2" fill="transparent"/>
<rect x="124.208" y="112.182" width="36.9236" height="36.9236" rx="1.5" stroke="#9F9F9F" stroke-opacity="0.2"/>
<rect x="48.9442" y="149.063" width="37.9236" height="37.9236" rx="2" fill="transparent"/>
<rect x="49.4442" y="149.563" width="36.9236" height="36.9236" rx="1.5" stroke="#9F9F9F" stroke-opacity="0.2"/>
<rect x="86.3259" y="149.063" width="37.9236" height="37.9236" rx="2" fill="transparent"/>
<rect x="86.8259" y="149.563" width="36.9236" height="36.9236" rx="1.5" stroke="#9F9F9F" stroke-opacity="0.2"/>
<rect x="123.708" y="149.063" width="37.9236" height="37.9236" rx="2" fill="transparent"/>
<rect x="124.208" y="149.563" width="36.9236" height="36.9236" rx="1.5" stroke="#9F9F9F" stroke-opacity="0.2"/>
<rect x="48.9442" y="186.445" width="37.9236" height="37.9236" rx="2" fill="transparent"/>
<rect x="49.4442" y="186.945" width="36.9236" height="36.9236" rx="1.5" stroke="#9F9F9F" stroke-opacity="0.2"/>
<rect x="86.3259" y="186.445" width="37.9236" height="37.9236" rx="2" fill="transparent"/>
<rect x="86.8259" y="186.945" width="36.9236" height="36.9236" rx="1.5" stroke="#9F9F9F" stroke-opacity="0.2"/>
<rect x="123.708" y="186.445" width="37.9236" height="37.9236" rx="2" fill="transparent"/>
<rect x="124.208" y="186.945" width="36.9236" height="36.9236" rx="1.5" stroke="#9F9F9F" stroke-opacity="0.2"/>
<rect x="161.09" y="111.682" width="37.9236" height="37.9236" rx="2" fill="transparent"/>
<rect x="161.59" y="112.182" width="36.9236" height="36.9236" rx="1.5" stroke="#9F9F9F" stroke-opacity="0.2"/>
<rect x="198.471" y="111.682" width="37.9236" height="37.9236" rx="2" fill="transparent"/>
<rect x="198.971" y="112.182" width="36.9236" height="36.9236" rx="1.5" stroke="#9F9F9F" stroke-opacity="0.2"/>
<rect x="235.853" y="111.682" width="37.9236" height="37.9236" rx="2" fill="transparent"/>
<rect x="236.353" y="112.182" width="36.9236" height="36.9236" rx="1.5" stroke="#9F9F9F" stroke-opacity="0.2"/>
<rect x="161.09" y="149.063" width="37.9236" height="37.9236" rx="2" fill="transparent"/>
<rect x="161.59" y="149.563" width="36.9236" height="36.9236" rx="1.5" stroke="#9F9F9F" stroke-opacity="0.2"/>
<rect x="198.471" y="149.063" width="37.9236" height="37.9236" rx="2" fill="transparent"/>
<rect x="198.971" y="149.563" width="36.9236" height="36.9236" rx="1.5" stroke="#9F9F9F" stroke-opacity="0.2"/>
<rect x="235.853" y="149.063" width="37.9236" height="37.9236" rx="2" fill="transparent"/>
<rect x="236.353" y="149.563" width="36.9236" height="36.9236" rx="1.5" stroke="#9F9F9F" stroke-opacity="0.2"/>
<rect x="161.09" y="186.445" width="37.9236" height="37.9236" rx="2" fill="transparent"/>
<rect x="161.59" y="186.945" width="36.9236" height="36.9236" rx="1.5" stroke="#9F9F9F" stroke-opacity="0.2"/>
<rect x="198.471" y="186.445" width="37.9236" height="37.9236" rx="2" fill="transparent"/>
<rect x="198.971" y="186.945" width="36.9236" height="36.9236" rx="1.5" stroke="#9F9F9F" stroke-opacity="0.2"/>
<rect x="235.853" y="186.445" width="37.9236" height="37.9236" rx="2" fill="transparent"/>
<rect x="236.353" y="186.945" width="36.9236" height="36.9236" rx="1.5" stroke="#9F9F9F" stroke-opacity="0.2"/>
<rect x="-26" width="37.9236" height="37.9236" rx="2" fill="transparent"/>
<rect x="-25.5" y="0.5" width="36.9236" height="36.9236" rx="1.5" stroke="#9F9F9F" stroke-opacity="0.2"/>
<rect x="11.3818" width="37.9236" height="37.9236" rx="2" fill="transparent"/>
<rect x="11.8818" y="0.5" width="36.9236" height="36.9236" rx="1.5" stroke="#9F9F9F" stroke-opacity="0.2"/>
<rect x="48.7637" width="37.9236" height="37.9236" rx="2" fill="transparent"/>
<rect x="49.2637" y="0.5" width="36.9236" height="36.9236" rx="1.5" stroke="#9F9F9F" stroke-opacity="0.2"/>
<rect x="-26" y="37.3818" width="37.9236" height="37.9236" rx="2" fill="transparent"/>
<rect x="-25.5" y="37.8818" width="36.9236" height="36.9236" rx="1.5" stroke="#9F9F9F" stroke-opacity="0.2"/>
<rect x="11.3818" y="37.3818" width="37.9236" height="37.9236" rx="2" fill="transparent"/>
<rect x="11.8818" y="37.8818" width="36.9236" height="36.9236" rx="1.5" stroke="#9F9F9F" stroke-opacity="0.2"/>
<rect x="48.7637" y="37.3818" width="37.9236" height="37.9236" rx="2" fill="transparent"/>
<rect x="49.2637" y="37.8818" width="36.9236" height="36.9236" rx="1.5" stroke="#9F9F9F" stroke-opacity="0.2"/>
<rect x="-26" y="74.7637" width="37.9236" height="37.9236" rx="2" fill="transparent"/>
<rect x="-25.5" y="75.2637" width="36.9236" height="36.9236" rx="1.5" stroke="#9F9F9F" stroke-opacity="0.2"/>
<rect x="11.3818" y="74.7635" width="37.9236" height="37.9236" rx="2" fill="transparent"/>
<rect x="11.8818" y="75.2635" width="36.9236" height="36.9236" rx="1.5" stroke="#9F9F9F" stroke-opacity="0.2"/>
<rect x="48.7637" y="74.7635" width="37.9236" height="37.9236" rx="2" fill="transparent"/>
<rect x="49.2637" y="75.2635" width="36.9236" height="36.9236" rx="1.5" stroke="#9F9F9F" stroke-opacity="0.2"/>
<rect x="86.1454" width="37.9236" height="37.9236" rx="2" fill="transparent"/>
<rect x="86.6454" y="0.5" width="36.9236" height="36.9236" rx="1.5" stroke="#9F9F9F" stroke-opacity="0.2"/>
<rect x="123.527" width="37.9236" height="37.9236" rx="2" fill="transparent"/>
<rect x="124.027" y="0.5" width="36.9236" height="36.9236" rx="1.5" stroke="#9F9F9F" stroke-opacity="0.2"/>
<rect x="160.909" width="37.9236" height="37.9236" rx="2" fill="transparent"/>
<rect x="161.409" y="0.5" width="36.9236" height="36.9236" rx="1.5" stroke="#9F9F9F" stroke-opacity="0.2"/>
<rect x="86.1454" y="37.3818" width="37.9236" height="37.9236" rx="2" fill="transparent"/>
<rect x="86.6454" y="37.8818" width="36.9236" height="36.9236" rx="1.5" stroke="#9F9F9F" stroke-opacity="0.2"/>
<rect x="123.527" y="37.3818" width="37.9236" height="37.9236" rx="2" fill="transparent"/>
<rect x="124.027" y="37.8818" width="36.9236" height="36.9236" rx="1.5" stroke="#9F9F9F" stroke-opacity="0.2"/>
<rect x="160.909" y="37.3818" width="37.9236" height="37.9236" rx="2" fill="transparent"/>
<rect x="161.409" y="37.8818" width="36.9236" height="36.9236" rx="1.5" stroke="#9F9F9F" stroke-opacity="0.2"/>
<rect x="86.1454" y="74.7637" width="37.9236" height="37.9236" rx="2" fill="transparent"/>
<rect x="86.6454" y="75.2637" width="36.9236" height="36.9236" rx="1.5" stroke="#9F9F9F" stroke-opacity="0.2"/>
<rect x="123.527" y="74.7635" width="37.9236" height="37.9236" rx="2" fill="transparent"/>
<rect x="124.027" y="75.2635" width="36.9236" height="36.9236" rx="1.5" stroke="#9F9F9F" stroke-opacity="0.2"/>
<rect x="160.909" y="74.7635" width="37.9236" height="37.9236" rx="2" fill="transparent"/>
<rect x="161.409" y="75.2635" width="36.9236" height="36.9236" rx="1.5" stroke="#9F9F9F" stroke-opacity="0.2"/>
</svg>
