<svg width="199" height="154" viewBox="0 0 199 154" fill="none" xmlns="http://www.w3.org/2000/svg">
<rect width="51.6145" height="51.6145" rx="2" fill="transparent"/>
<rect x="0.5" y="0.5" width="50.6145" height="50.6145" rx="1.5" stroke="#9F9F9F" stroke-opacity="0.3"/>
<rect x="50.8772" width="51.6145" height="51.6145" rx="2" fill="transparent"/>
<rect x="51.3772" y="0.5" width="50.6145" height="50.6145" rx="1.5" stroke="#9F9F9F" stroke-opacity="0.3"/>
<rect x="101.754" width="51.6145" height="51.6145" rx="2" fill="transparent"/>
<rect x="102.254" y="0.5" width="50.6145" height="50.6145" rx="1.5" stroke="#9F9F9F" stroke-opacity="0.3"/>
<rect y="50.8771" width="51.6145" height="51.6145" rx="2" fill="transparent"/>
<rect x="0.5" y="51.3771" width="50.6145" height="50.6145" rx="1.5" stroke="#9F9F9F" stroke-opacity="0.3"/>
<rect x="50.8772" y="50.8771" width="51.6145" height="51.6145" rx="2" fill="transparent"/>
<rect x="51.3772" y="51.3771" width="50.6145" height="50.6145" rx="1.5" stroke="#9F9F9F" stroke-opacity="0.3"/>
<rect x="101.754" y="50.8771" width="51.6145" height="51.6145" rx="2" fill="transparent"/>
<rect x="102.254" y="51.3771" width="50.6145" height="50.6145" rx="1.5" stroke="#9F9F9F" stroke-opacity="0.3"/>
<rect y="101.754" width="51.6145" height="51.6145" rx="2" fill="transparent"/>
<rect x="0.5" y="102.254" width="50.6145" height="50.6145" rx="1.5" stroke="#9F9F9F" stroke-opacity="0.3"/>
<rect x="50.8772" y="101.754" width="51.6145" height="51.6145" rx="2" fill="transparent"/>
<rect x="51.3772" y="102.254" width="50.6145" height="50.6145" rx="1.5" stroke="#9F9F9F" stroke-opacity="0.3"/>
<rect x="101.754" y="101.754" width="51.6145" height="51.6145" rx="2" fill="transparent"/>
<rect x="102.254" y="102.254" width="50.6145" height="50.6145" rx="1.5" stroke="#9F9F9F" stroke-opacity="0.3"/>
<rect x="152.631" width="51.6145" height="51.6145" rx="2" fill="transparent"/>
<rect x="153.131" y="0.5" width="50.6145" height="50.6145" rx="1.5" stroke="#9F9F9F" stroke-opacity="0.3"/>
<rect x="152.631" y="50.8771" width="51.6145" height="51.6145" rx="2" fill="transparent"/>
<rect x="153.131" y="51.3771" width="50.6145" height="50.6145" rx="1.5" stroke="#9F9F9F" stroke-opacity="0.3"/>
<rect x="152.631" y="101.754" width="51.6145" height="51.6145" rx="2" fill="transparent"/>
<rect x="153.131" y="102.254" width="50.6145" height="50.6145" rx="1.5" stroke="#9F9F9F" stroke-opacity="0.3"/>
</svg>
