<svg width="84" height="68" viewBox="0 0 84 68" fill="none" xmlns="http://www.w3.org/2000/svg">
<g clip-path="url(#clip0_24_53)">
<path d="M55.6276 18.9799L62.8424 11.7423L63.3232 8.69479C50.1758 -3.29789 29.2764 -1.93805 17.4242 11.5322C14.1324 15.2735 11.6901 19.9378 10.3877 24.7543L12.9717 24.389L27.4011 22.0018L28.5151 20.8592C34.9336 13.7878 45.7862 12.8364 53.1972 18.8531L55.6276 18.9799Z" fill="#34A853"/>
<path d="M73.1201 24.5413C71.4618 18.4151 68.0569 12.9076 63.3232 8.69482L53.1972 18.8528C55.3075 20.5826 56.9988 22.7706 58.1433 25.2516C59.2879 27.7327 59.8559 30.4421 59.8044 33.1755V34.9787C64.7812 34.9787 68.8167 39.0263 68.8167 44.0191C68.8167 49.0122 64.7815 52.9584 59.8044 52.9584H41.7548L39.9827 54.8884V65.732L41.7548 67.4333H59.8041C72.7502 67.5345 83.3271 57.1901 83.428 44.2032C83.458 40.3276 82.5327 36.5045 80.7344 33.0742C78.936 29.6439 76.3204 26.7127 73.1201 24.5413Z" fill="#34A853"/>
<path d="M23.7303 67.4337H41.7546V52.9584H23.7303C22.4544 52.9583 21.1936 52.6811 20.0345 52.146L17.4774 52.9331L10.212 60.1707L9.5791 62.6341C13.6536 65.7203 18.6248 67.4558 23.7303 67.4337Z" fill="#34A853"/>
<path d="M23.7304 20.4781C10.7844 20.5558 0.351972 31.147 0.429136 44.1343C0.45042 47.7131 1.28572 51.2398 2.87139 54.4457C4.45707 57.6517 6.75128 60.4522 9.57924 62.6341L20.0346 52.1463C15.4988 50.0901 13.4828 44.7353 15.5322 40.1852C17.5813 35.635 22.9199 33.6127 27.4554 35.6682C29.4541 36.5741 31.0549 38.1801 31.9578 40.1852L42.4132 29.6967C40.2188 26.8188 37.3904 24.4891 34.1493 22.8898C30.9083 21.2906 27.3423 20.4651 23.7304 20.4781Z" fill="#34A853"/>
</g>
<defs>
<clipPath id="clip0_24_53">
<rect width="83" height="67" fill="white" transform="translate(0.428711 0.5)"/>
</clipPath>
</defs>
</svg>
