<svg width="400" height="370" viewBox="0 0 400 370" fill="none" xmlns="http://www.w3.org/2000/svg">
<g clip-path="url(#clip0_24_333)">
<g clip-path="url(#clip1_24_333)">
<rect x="51.75" width="297" height="259.5" rx="6" fill="#F2F2F2"/>
<path d="M51.75 6C51.75 2.68629 54.4363 0 57.75 0H342.75C346.064 0 348.75 2.68629 348.75 6V20.25H51.75V6Z" fill="#C5CFD6"/>
<path fill-rule="evenodd" clip-rule="evenodd" d="M61.5 13.5C63.1569 13.5 64.5 12.1569 64.5 10.5C64.5 8.84315 63.1569 7.5 61.5 7.5C59.8431 7.5 58.5 8.84315 58.5 10.5C58.5 12.1569 59.8431 13.5 61.5 13.5Z" fill="#F2F2F2"/>
<path fill-rule="evenodd" clip-rule="evenodd" d="M70.5 13.5C72.1569 13.5 73.5 12.1569 73.5 10.5C73.5 8.84315 72.1569 7.5 70.5 7.5C68.8431 7.5 67.5 8.84315 67.5 10.5C67.5 12.1569 68.8431 13.5 70.5 13.5Z" fill="#F2F2F2"/>
<path fill-rule="evenodd" clip-rule="evenodd" d="M79.5 13.5C81.1569 13.5 82.5 12.1569 82.5 10.5C82.5 8.84315 81.1569 7.5 79.5 7.5C77.8431 7.5 76.5 8.84315 76.5 10.5C76.5 12.1569 77.8431 13.5 79.5 13.5Z" fill="#F2F2F2"/>
<g clip-path="url(#clip2_24_333)">
<g clip-path="url(#clip3_24_333)">
<rect x="284.25" y="99" width="52.5" height="145.5" rx="6" fill="white"/>
<g clip-path="url(#clip4_24_333)">
<rect x="297.75" y="112.5" width="25.5" height="19.5" rx="3" fill="#DDE3E9"/>
<rect x="297.75" y="138" width="25.5" height="18.75" rx="3" fill="#AFB9C5"/>
<rect x="297.75" y="162.75" width="25.5" height="18.75" rx="3" fill="#DDE3E9"/>
<rect x="297.75" y="212.25" width="25.5" height="18.75" rx="3" fill="#DDE3E9"/>
<rect x="297.75" y="187.5" width="25.5" height="18.75" rx="3" fill="#C5CFD6"/>
</g>
</g>
<rect x="284.25" y="32.25" width="52.5" height="60.75" rx="6" fill="white"/>
<g clip-path="url(#clip5_24_333)">
<path fill-rule="evenodd" clip-rule="evenodd" d="M310.5 67.5C317.127 67.5 322.5 62.1274 322.5 55.5C322.5 48.8726 317.127 43.5 310.5 43.5C303.873 43.5 298.5 48.8726 298.5 55.5C298.5 62.1274 303.873 67.5 310.5 67.5Z" fill="#DDE3E9"/>
<rect x="291.75" y="70.5" width="37.5" height="4.5" rx="2.25" fill="#DDE3E9"/>
<rect x="297.75" y="78" width="25.5" height="4.5" rx="2.25" fill="#DDE3E9"/>
</g>
<g clip-path="url(#clip6_24_333)">
<g clip-path="url(#clip7_24_333)">
<rect x="63.75" y="32.25" width="214.5" height="35.25" rx="3" fill="white"/>
<g clip-path="url(#clip8_24_333)">
<rect x="70.5" y="42.825" width="171" height="5.2875" rx="2.25" fill="#DDE3E9"/>
<rect x="70.5" y="51.6375" width="114.781" height="5.2875" rx="2.25" fill="#DDE3E9"/>
</g>
<path fill-rule="evenodd" clip-rule="evenodd" d="M255.326 55.125C258.226 55.125 260.576 52.7745 260.576 49.875C260.576 46.9755 258.226 44.625 255.326 44.625C252.427 44.625 250.076 46.9755 250.076 49.875C250.076 52.7745 252.427 55.125 255.326 55.125Z" fill="#DDE3E9"/>
<path fill-rule="evenodd" clip-rule="evenodd" d="M255.326 52.125C256.569 52.125 257.576 51.1176 257.576 49.875C257.576 48.6324 256.569 47.625 255.326 47.625C254.084 47.625 253.076 48.6324 253.076 49.875C253.076 51.1176 254.084 52.125 255.326 52.125Z" fill="#F2F2F2"/>
</g>
<g clip-path="url(#clip9_24_333)">
<rect x="63.75" y="73.5" width="214.5" height="29.25" rx="3" fill="white"/>
<g clip-path="url(#clip10_24_333)">
<rect x="70.5" y="82.275" width="171" height="4.3875" rx="2.19375" fill="#DDE3E9"/>
<rect x="70.5" y="89.5875" width="114.781" height="4.3875" rx="2.19375" fill="#DDE3E9"/>
</g>
<path fill-rule="evenodd" clip-rule="evenodd" d="M255.326 93.375C258.226 93.375 260.576 91.0245 260.576 88.125C260.576 85.2255 258.226 82.875 255.326 82.875C252.427 82.875 250.076 85.2255 250.076 88.125C250.076 91.0245 252.427 93.375 255.326 93.375Z" fill="#DDE3E9"/>
<path fill-rule="evenodd" clip-rule="evenodd" d="M255.326 90.375C256.569 90.375 257.576 89.3676 257.576 88.125C257.576 86.8824 256.569 85.875 255.326 85.875C254.084 85.875 253.076 86.8824 253.076 88.125C253.076 89.3676 254.084 90.375 255.326 90.375Z" fill="#F2F2F2"/>
</g>
<g clip-path="url(#clip11_24_333)">
<rect x="63.75" y="108.75" width="214.5" height="29.25" rx="3" fill="white"/>
<g clip-path="url(#clip12_24_333)">
<rect x="70.5" y="117.525" width="171" height="4.3875" rx="2.19375" fill="#DDE3E9"/>
<rect x="70.5" y="124.838" width="114.781" height="4.3875" rx="2.19375" fill="#DDE3E9"/>
</g>
<path fill-rule="evenodd" clip-rule="evenodd" d="M255.326 128.625C258.226 128.625 260.576 126.274 260.576 123.375C260.576 120.476 258.226 118.125 255.326 118.125C252.427 118.125 250.076 120.476 250.076 123.375C250.076 126.274 252.427 128.625 255.326 128.625Z" fill="#DDE3E9"/>
<path fill-rule="evenodd" clip-rule="evenodd" d="M255.326 125.625C256.569 125.625 257.576 124.618 257.576 123.375C257.576 122.132 256.569 121.125 255.326 121.125C254.084 121.125 253.076 122.132 253.076 123.375C253.076 124.618 254.084 125.625 255.326 125.625Z" fill="#AFB9C5"/>
</g>
<g clip-path="url(#clip13_24_333)">
<rect x="63.75" y="214.5" width="214.5" height="29.25" rx="3" fill="white"/>
<g clip-path="url(#clip14_24_333)">
<rect x="70.5" y="223.275" width="171" height="4.3875" rx="2.19375" fill="#DDE3E9"/>
<rect x="70.5" y="230.587" width="114.781" height="4.3875" rx="2.19375" fill="#DDE3E9"/>
</g>
<path fill-rule="evenodd" clip-rule="evenodd" d="M255.326 234.375C258.226 234.375 260.576 232.024 260.576 229.125C260.576 226.226 258.226 223.875 255.326 223.875C252.427 223.875 250.076 226.226 250.076 229.125C250.076 232.024 252.427 234.375 255.326 234.375Z" fill="#DDE3E9"/>
<path fill-rule="evenodd" clip-rule="evenodd" d="M255.326 231.375C256.569 231.375 257.576 230.368 257.576 229.125C257.576 227.882 256.569 226.875 255.326 226.875C254.084 226.875 253.076 227.882 253.076 229.125C253.076 230.368 254.084 231.375 255.326 231.375Z" fill="#F2F2F2"/>
</g>
<g clip-path="url(#clip15_24_333)">
<rect x="63.75" y="179.25" width="214.5" height="29.25" rx="3" fill="white"/>
<g clip-path="url(#clip16_24_333)">
<rect x="70.5" y="188.025" width="171" height="4.3875" rx="2.19375" fill="#DDE3E9"/>
<rect x="70.5" y="195.338" width="114.781" height="4.3875" rx="2.19375" fill="#DDE3E9"/>
</g>
<path fill-rule="evenodd" clip-rule="evenodd" d="M255.326 199.125C258.226 199.125 260.576 196.774 260.576 193.875C260.576 190.976 258.226 188.625 255.326 188.625C252.427 188.625 250.076 190.976 250.076 193.875C250.076 196.774 252.427 199.125 255.326 199.125Z" fill="#DDE3E9"/>
<path fill-rule="evenodd" clip-rule="evenodd" d="M255.326 196.125C256.569 196.125 257.576 195.118 257.576 193.875C257.576 192.632 256.569 191.625 255.326 191.625C254.084 191.625 253.076 192.632 253.076 193.875C253.076 195.118 254.084 196.125 255.326 196.125Z" fill="#F2F2F2"/>
</g>
<g clip-path="url(#clip17_24_333)">
<rect x="63.75" y="144" width="214.5" height="29.25" rx="3" fill="white"/>
<g clip-path="url(#clip18_24_333)">
<rect x="70.5" y="152.775" width="171" height="4.3875" rx="2.19375" fill="#DDE3E9"/>
<rect x="70.5" y="160.088" width="114.781" height="4.3875" rx="2.19375" fill="#DDE3E9"/>
</g>
<path fill-rule="evenodd" clip-rule="evenodd" d="M255.326 163.875C258.226 163.875 260.576 161.524 260.576 158.625C260.576 155.726 258.226 153.375 255.326 153.375C252.427 153.375 250.076 155.726 250.076 158.625C250.076 161.524 252.427 163.875 255.326 163.875Z" fill="#DDE3E9"/>
<path fill-rule="evenodd" clip-rule="evenodd" d="M255.326 160.875C256.569 160.875 257.576 159.868 257.576 158.625C257.576 157.382 256.569 156.375 255.326 156.375C254.084 156.375 253.076 157.382 253.076 158.625C253.076 159.868 254.084 160.875 255.326 160.875Z" fill="#F2F2F2"/>
</g>
</g>
</g>
</g>
<path fill-rule="evenodd" clip-rule="evenodd" d="M91.6089 136.732C96.2509 138.703 100.631 139.355 102.534 138.57C107.306 136.602 105.223 118.482 100.393 111.902C95.5619 105.323 75.4344 104.987 76.424 119.23C76.7674 124.173 79.4428 128.252 82.9896 131.388L81.0949 157.535L96.959 155.305L91.6089 136.732Z" fill="#B28B67"/>
<path fill-rule="evenodd" clip-rule="evenodd" d="M93.0369 105.03C90.7766 104.676 87.5984 104.895 86.2959 105.232C86.7961 103.327 86.8132 101.281 86.2954 99.3644C85.7922 97.5016 84.7155 96.0067 83.6919 94.4254C83.22 93.6966 82.7005 92.9788 82.0046 92.4684C81.2957 91.9484 80.45 91.6582 79.5955 91.5832C78.721 91.5063 77.8376 91.6471 77.0143 91.9441C76.6501 92.0754 76.3374 92.2938 75.9828 92.4406C75.6196 92.591 75.4037 92.3816 75.0969 92.1837C74.3576 91.7068 73.3517 91.5615 72.5035 91.5781C71.5519 91.5968 70.6007 91.874 69.7514 92.3061C68.9247 92.7267 68.1584 93.3288 67.6296 94.1233C67.3942 94.477 67.1907 94.8705 67.0812 95.2888C67.0363 95.4605 67.0387 95.5581 66.8847 95.6403C66.7424 95.7164 66.5671 95.7426 66.4195 95.8167C64.9929 96.533 63.8745 97.8667 63.3854 99.446C63.1001 100.367 63.1212 101.916 63.4137 103.614C63.7062 105.312 65.8762 109.545 67.5489 110.965C69.042 112.233 71.0718 112.923 72.9599 113.084C71.9402 114.638 71.3749 116.481 71.0244 118.323C70.6437 120.325 70.5208 122.366 70.6566 124.409C70.7857 126.35 71.0582 128.383 71.7743 130.2C72.444 131.899 73.5505 133.215 75.188 133.918C75.938 134.24 76.7259 134.45 77.5142 134.633C78.2912 134.813 79.0692 134.985 79.8637 135.035C81.3672 135.131 83.0436 134.843 84.0063 133.525C84.3532 133.05 84.7255 132.462 84.9497 131.91C85.0303 131.711 85.0776 131.582 84.9231 131.421C84.738 131.227 84.4643 131.098 84.2417 130.958C82.9723 130.158 82.09 128.977 81.6991 127.48C81.3026 125.962 81.4384 123.911 82.8491 123.026C84.5904 121.933 86.7709 122.6 88.5475 123.258C88.9023 120.689 90.0309 118.263 92.1312 116.812C94.4549 115.208 97.3028 114.658 99.7205 113.221C100.351 112.847 100.988 112.433 101.4 111.793C101.573 111.525 101.771 111.182 101.809 110.855C101.858 110.425 101.541 110.115 101.289 109.821C99.9495 108.261 95.2972 105.385 93.0369 105.03Z" fill="#191847"/>
<path fill-rule="evenodd" clip-rule="evenodd" d="M86.7749 209.947L136.374 292.619L173.56 362.512H181.569L119.265 209.947L86.7749 209.947Z" fill="#997659"/>
<path fill-rule="evenodd" clip-rule="evenodd" d="M170.675 358.612C169.87 358.264 168.916 358.621 168.62 359.446C168.142 360.777 167.542 362.664 167.542 363.746C167.542 365.546 168.144 369 168.144 369C170.239 369 205.792 369 205.792 369C205.792 369 207.26 364.163 204.098 363.777C200.936 363.392 198.845 363.081 198.845 363.081L181.423 355.337C181.037 355.166 180.586 355.346 180.425 355.736L179.333 358.378C179.333 358.378 176.406 359.739 174.576 359.739C173.511 359.739 171.865 359.125 170.675 358.612Z" fill="#E4E4E4"/>
<path fill-rule="evenodd" clip-rule="evenodd" d="M163.232 351.32L178.678 346.661C178.678 346.661 168.527 316.407 153.796 280.073C139.064 243.739 122.152 209.947 122.152 209.947H78.5273C78.5273 209.947 97.3289 252.693 118.392 287.627C139.455 322.561 163.232 351.32 163.232 351.32Z" fill="#DB2721"/>
<path fill-rule="evenodd" clip-rule="evenodd" d="M83.5154 209.947C78.8341 238.999 69.8052 276.115 68.9532 277.261C68.3851 278.024 47.935 284.856 7.60278 297.757L9.33291 304.798C57.429 297.88 82.7715 292.512 85.3605 288.695C89.2439 282.97 108.635 237.74 116.145 209.947H83.5154Z" fill="#B28B67"/>
<path fill-rule="evenodd" clip-rule="evenodd" d="M21.7803 291.67L24.8277 303.011C60.8007 306.157 82.8422 303.884 90.9521 296.192C99.062 288.501 108.305 259.753 118.681 209.947H77.0817C70.5078 250.731 66.8326 271.979 66.056 273.691C65.2794 275.403 50.5208 281.396 21.7803 291.67Z" fill="#FF4133"/>
<path fill-rule="evenodd" clip-rule="evenodd" d="M10.59 296.692C10.794 295.837 10.275 294.956 9.40776 294.809C8.00995 294.571 6.04517 294.31 4.97654 294.498C3.19843 294.811 -0.108405 296.001 -0.108405 296.001C0.25531 298.058 6.42914 332.966 6.42914 332.966C6.42914 332.966 11.4618 333.567 11.2937 330.395C11.1257 327.224 11.0695 325.117 11.0695 325.117L15.6919 306.671C15.7947 306.261 15.5378 305.846 15.1243 305.755L12.3268 305.142C12.3268 305.142 10.4736 302.505 10.1558 300.708C9.97142 299.665 10.2901 297.949 10.59 296.692Z" fill="#E4E4E4"/>
<path fill-rule="evenodd" clip-rule="evenodd" d="M133.7 151.277L112.518 167.03L122.265 174.905L136.797 157.344C145.24 153.697 149.008 151.367 148.101 150.355C147.337 149.501 146.322 149.677 145.387 149.84C144.658 149.966 143.979 150.084 143.504 149.7C142.419 148.824 143.722 145.044 145.113 141.509C146.503 137.974 144.564 138.537 143.499 139.167C140.147 142.187 136.881 146.224 133.7 151.277ZM159.239 165.614L149.937 172.55L151.928 182.552C151.928 182.552 157.795 176.938 163.191 174.588C170.071 171.591 172.755 169.664 175.629 164.728C177.167 162.086 178.084 157.082 176.083 155.776C175.316 155.275 172.967 157.043 170.571 158.848C168.744 160.224 166.89 161.62 165.688 162.049C164.068 162.625 163.961 160.443 163.875 158.699C163.813 157.448 163.762 156.422 163.172 156.804C160.229 157.269 159.239 165.614 159.239 165.614Z" fill="#997659"/>
<path fill-rule="evenodd" clip-rule="evenodd" d="M100.952 165.809C108.977 164.595 119.455 161.397 129.872 152.553L135.766 161.906C128.976 170.819 118.787 178.789 109.052 179.88C101.38 180.74 96.179 172.074 100.952 165.809Z" fill="#2026A2"/>
<path fill-rule="evenodd" clip-rule="evenodd" d="M96.1001 140.641L97.9248 140.384C100.221 150.772 105.319 161.652 110.449 172.602C111.648 175.159 112.847 177.72 114.014 180.279C127.767 181.423 155.889 166.763 155.889 166.763C155.889 166.763 165.526 181.124 165.885 187.766C149.918 199.159 135.715 205.234 123.588 207.208C124.986 214.35 125.069 221.321 122.997 227.992C120.221 236.932 103.451 237.106 88.8914 237.256C81.112 237.337 73.9637 237.411 69.9183 238.812C63.1267 224.355 65.6652 214.295 68.0086 205.008C69.421 199.41 70.7625 194.094 69.9478 188.265C67.5752 171.291 77.5729 143.245 79.584 142.962L80.1614 142.881C80.1614 142.881 80.1614 142.881 80.1614 142.881L96.1001 140.641C96.1001 140.641 96.1001 140.641 96.1001 140.641Z" fill="#1F28CF"/>
<path fill-rule="evenodd" clip-rule="evenodd" d="M287.562 136.555C283.588 139.66 279.526 141.423 277.484 141.157C272.366 140.491 269.688 122.45 272.651 114.844C275.614 107.238 294.969 101.705 297.699 115.719C298.647 120.583 297.118 125.215 294.504 129.162L303.101 153.927L287.201 155.879L287.562 136.555Z" fill="#B28B67"/>
<path fill-rule="evenodd" clip-rule="evenodd" d="M280.704 105.509C282.758 104.909 288.371 103.98 289.412 103.853C290.077 103.771 290.816 103.834 291.135 103.177C291.397 102.639 291.175 101.81 291.2 101.22C291.23 100.534 291.307 99.8514 291.386 99.17C291.612 97.231 292.083 95.3548 292.843 93.5543C294.27 90.1762 296.624 87.3783 299.803 85.5282C303.313 83.4852 307.461 82.6068 311.486 82.4396C315.793 82.2605 319.826 83.1902 324.015 84.0167C328.007 84.8043 332.087 84.8062 336.025 83.6988C339.993 82.583 342.78 80.0228 345.936 77.5301C349.167 74.9783 352.987 73.0997 357.154 72.9121C361.043 72.7371 364.789 73.8872 368.236 75.6149C371.46 77.2313 374.213 79.3145 376.013 82.501C377.951 85.9286 378.436 89.8925 376.371 93.3855C373.378 98.4486 366.915 100.457 361.4 101.013C358.211 101.335 355.016 101.14 351.883 100.455C347.705 99.5424 343.952 97.5867 339.967 96.1153C338.098 95.4248 336.188 94.9036 334.217 94.6013C332.305 94.3078 330.454 94.2926 328.917 95.6116C327.291 97.0071 325.846 98.3591 323.911 99.3452C322.054 100.291 320.044 100.94 317.972 101.178C313.939 101.642 309.814 100.878 305.799 100.52C302.524 100.228 299.027 99.9664 295.854 101.023C294.531 101.464 292.617 102.273 292.3 103.74C300.734 104.218 305.224 113.994 303.815 121.748C303.055 125.933 296.086 131.572 292.892 129.813C290.868 128.699 291.78 126.798 292.368 125.544C293.493 123.144 293.62 120.223 290.841 118.99C288.444 117.926 286.487 121.392 286.442 121.394C285.823 121.421 280.154 119.082 275.965 115.168C272.388 115.824 271.55 113.522 272.173 111.479C272.795 109.436 277.867 106.338 280.704 105.509Z" fill="#191847"/>
<path fill-rule="evenodd" clip-rule="evenodd" d="M321.89 209.947C320.687 226.325 243.15 274.542 242.698 275.895C242.396 276.797 266.832 332.916 266.832 332.916L260.054 335.542C260.054 335.542 222.574 276.108 224.499 269.775C227.255 260.708 284.658 210.121 284.658 210.121L321.89 209.947Z" fill="#B28B67"/>
<path fill-rule="evenodd" clip-rule="evenodd" d="M265.048 324.467L253.982 328.483C230.648 302.234 221.502 280.576 223.169 269.542C224.837 258.507 283.121 209.987 283.121 209.987L322.684 209.987C321.334 247.915 249.467 276.04 248.506 277.656C247.544 279.272 257.004 295.102 265.048 324.467Z" fill="#2F3676"/>
<path fill-rule="evenodd" clip-rule="evenodd" d="M267.203 331.68C267.841 331.079 268.86 331.088 269.421 331.763C270.327 332.851 271.537 334.419 271.909 335.436C272.526 337.128 273.146 340.578 273.146 340.578C271.177 341.292 237.768 353.416 237.768 353.416C237.768 353.416 234.73 349.371 237.568 347.93C240.407 346.49 242.266 345.484 242.266 345.484L255.98 332.268C256.284 331.975 256.77 331.99 257.055 332.302L258.988 334.412C258.988 334.412 262.205 334.693 263.925 334.069C264.925 333.706 266.261 332.568 267.203 331.68Z" fill="#E4E4E4"/>
<path fill-rule="evenodd" clip-rule="evenodd" d="M312.975 209.947L347.516 292.619L381.463 362.512H373.454L285.825 209.947H312.975Z" fill="#997659"/>
<path fill-rule="evenodd" clip-rule="evenodd" d="M379.93 358.612C380.735 358.264 381.689 358.621 381.985 359.446C382.463 360.777 383.062 362.664 383.062 363.746C383.062 365.546 382.461 369 382.461 369C380.366 369 344.813 369 344.813 369C344.813 369 343.345 364.163 346.507 363.777C349.669 363.392 351.76 363.081 351.76 363.081L369.182 355.337C369.568 355.166 370.019 355.346 370.18 355.736L371.272 358.378C371.272 358.378 374.199 359.739 376.029 359.739C377.094 359.739 378.74 359.125 379.93 358.612Z" fill="#E4E4E4"/>
<path fill-rule="evenodd" clip-rule="evenodd" d="M378.398 347.992L360.601 351.32C346.84 331.15 289.252 248.447 282.938 209.947H322.558C343.643 237.779 365.281 327.489 378.398 347.992Z" fill="#5C63AB"/>
<path fill-rule="evenodd" clip-rule="evenodd" d="M226.663 189.934L251.96 197.497L245.497 208.229L225.83 196.693C216.648 196.151 212.31 195.25 212.815 193.989C213.242 192.926 214.256 192.744 215.19 192.577C215.917 192.447 216.597 192.325 216.911 191.802C217.631 190.608 215.112 187.501 212.596 184.655C210.08 181.809 212.094 181.675 213.311 181.903C217.494 183.595 221.945 186.272 226.663 189.934ZM336.123 192.828L349.37 188.475C361.548 211.54 368.665 224.125 370.721 226.229C372.229 227.773 380.777 231.176 386.486 232.853C388.778 233.526 388.536 235.417 387.97 236.082C384.398 240.276 380.496 239.438 376.249 238.527C375.019 238.263 373.761 237.993 372.473 237.837C369.14 237.434 368.359 239.213 367.621 240.895C366.968 242.384 366.348 243.796 364.02 243.548C364.069 243.093 364.134 242.581 364.205 242.029C364.662 238.459 365.337 233.195 363.042 230.466C361.864 229.065 352.891 216.52 336.123 192.828Z" fill="#B28B67"/>
<path fill-rule="evenodd" clip-rule="evenodd" d="M292.676 144.031L286.827 143.755C275.831 157.355 274.298 186.973 266.454 191.832C259.037 196.426 247.461 194.283 233.631 191.169L230.683 200.705C244.314 212.21 271.305 220.03 280.93 212.492C296.32 200.44 295.765 164.21 292.676 144.031Z" fill="#DB2721"/>
<path fill-rule="evenodd" clip-rule="evenodd" d="M326.464 212.744C326.464 212.744 292.007 216.974 275.773 218.968C273.457 219.252 273.484 215.864 273.612 214.14C275.092 194.246 287.607 171.46 284.212 143.816L298.553 139.735C313.028 157.642 320.142 181.004 326.464 212.744Z" fill="#DDE3E9"/>
<path fill-rule="evenodd" clip-rule="evenodd" d="M293.8 230.835L339.43 225.232C337.375 214.464 333.65 203.267 329.106 192.461C341.721 209.776 352.05 222.089 360.092 229.4L370.462 226.02C358.422 184.542 334.766 155.741 299.496 139.619L299.33 139.639L293.707 140.33C293.707 140.33 282.234 209.663 293.8 230.835Z" fill="#FF4133"/>
<path fill-rule="evenodd" clip-rule="evenodd" d="M174.874 141.532C174.873 141.536 174.873 141.54 174.871 141.545C174.873 141.54 174.872 141.525 174.874 141.532Z" fill="#C5CFD6"/>
<path fill-rule="evenodd" clip-rule="evenodd" d="M174.872 141.538C174.872 141.539 174.871 141.54 174.872 141.542C174.871 141.538 174.875 141.526 174.872 141.538Z" fill="#C5CFD6"/>
<path fill-rule="evenodd" clip-rule="evenodd" d="M174.882 141.47C174.88 141.486 174.877 141.501 174.875 141.517C174.876 141.509 174.877 141.503 174.878 141.495C174.85 141.703 174.867 141.568 174.882 141.47Z" fill="#C5CFD6"/>
<path fill-rule="evenodd" clip-rule="evenodd" d="M174.876 141.518C174.875 141.525 174.874 141.533 174.873 141.541C174.862 141.587 174.876 141.518 174.876 141.518Z" fill="#C5CFD6"/>
<path fill-rule="evenodd" clip-rule="evenodd" d="M174.872 141.538C174.872 141.537 174.872 141.537 174.872 141.536C174.872 141.537 174.872 141.537 174.872 141.538Z" fill="#C5CFD6"/>
<path fill-rule="evenodd" clip-rule="evenodd" d="M174.87 141.544C174.868 141.554 174.882 141.506 174.87 141.544V141.544Z" fill="#C5CFD6"/>
<path fill-rule="evenodd" clip-rule="evenodd" d="M174.872 141.538L174.873 141.536C174.872 141.537 174.872 141.538 174.872 141.538Z" fill="#C5CFD6"/>
<rect x="128.544" y="111.507" width="75" height="49.5" rx="3" transform="rotate(-14 128.544 111.507)" fill="#2B44FF"/>
<path fill-rule="evenodd" clip-rule="evenodd" d="M159.545 118.676L147.085 158.111L189.06 147.646L159.545 118.676Z" fill="black" fill-opacity="0.2"/>
<path fill-rule="evenodd" clip-rule="evenodd" d="M183.469 122.442L171.158 152.109L208.267 142.857L183.469 122.442Z" fill="black" fill-opacity="0.2"/>
<path fill-rule="evenodd" clip-rule="evenodd" d="M191.493 120.797C195.311 119.845 197.634 115.978 196.682 112.16C195.73 108.342 191.863 106.018 188.045 106.97C184.227 107.922 181.904 111.789 182.856 115.607C183.807 119.426 187.674 121.749 191.493 120.797Z" fill="white"/>
</g>
<defs>
<clipPath id="clip0_24_333">
<rect width="399.75" height="369.75" fill="white"/>
</clipPath>
<clipPath id="clip1_24_333">
<rect width="297" height="259.5" fill="white" transform="translate(51.75)"/>
</clipPath>
<clipPath id="clip2_24_333">
<rect width="273" height="212.25" fill="white" transform="translate(63.75 32.25)"/>
</clipPath>
<clipPath id="clip3_24_333">
<rect width="52.5" height="145.5" fill="white" transform="translate(284.25 99)"/>
</clipPath>
<clipPath id="clip4_24_333">
<rect width="25.5" height="118.5" fill="white" transform="translate(297.75 112.5)"/>
</clipPath>
<clipPath id="clip5_24_333">
<rect width="37.5" height="39" fill="white" transform="translate(291.75 43.5)"/>
</clipPath>
<clipPath id="clip6_24_333">
<rect width="214.5" height="211.5" fill="white" transform="translate(63.75 32.25)"/>
</clipPath>
<clipPath id="clip7_24_333">
<rect width="214.5" height="35.25" fill="white" transform="translate(63.75 32.25)"/>
</clipPath>
<clipPath id="clip8_24_333">
<rect width="171" height="14.25" fill="white" transform="translate(70.5 42.825)"/>
</clipPath>
<clipPath id="clip9_24_333">
<rect width="214.5" height="29.25" fill="white" transform="translate(63.75 73.5)"/>
</clipPath>
<clipPath id="clip10_24_333">
<rect width="171" height="12" fill="white" transform="translate(70.5 82.275)"/>
</clipPath>
<clipPath id="clip11_24_333">
<rect width="214.5" height="29.25" fill="white" transform="translate(63.75 108.75)"/>
</clipPath>
<clipPath id="clip12_24_333">
<rect width="171" height="12" fill="white" transform="translate(70.5 117.525)"/>
</clipPath>
<clipPath id="clip13_24_333">
<rect width="214.5" height="29.25" fill="white" transform="translate(63.75 214.5)"/>
</clipPath>
<clipPath id="clip14_24_333">
<rect width="171" height="12" fill="white" transform="translate(70.5 223.275)"/>
</clipPath>
<clipPath id="clip15_24_333">
<rect width="214.5" height="29.25" fill="white" transform="translate(63.75 179.25)"/>
</clipPath>
<clipPath id="clip16_24_333">
<rect width="171" height="12" fill="white" transform="translate(70.5 188.025)"/>
</clipPath>
<clipPath id="clip17_24_333">
<rect width="214.5" height="29.25" fill="white" transform="translate(63.75 144)"/>
</clipPath>
<clipPath id="clip18_24_333">
<rect width="171" height="12" fill="white" transform="translate(70.5 152.775)"/>
</clipPath>
</defs>
</svg>
