<svg width="80" height="80" viewBox="0 0 80 80" fill="none" xmlns="http://www.w3.org/2000/svg">
<path fill-rule="evenodd" clip-rule="evenodd" d="M25.12 20.88C25.6818 21.4425 25.9974 22.205 25.9974 23C25.9974 23.795 25.6818 24.5575 25.12 25.12L10.24 40L25.12 54.88C25.65 55.4487 25.9385 56.2009 25.9247 56.9781C25.911 57.7553 25.5962 58.4968 25.0465 59.0465C24.4969 59.5961 23.7553 59.911 22.9781 59.9247C22.2009 59.9384 21.4487 59.6499 20.88 59.12L3.88005 42.12C3.31824 41.5575 3.00269 40.795 3.00269 40C3.00269 39.205 3.31824 38.4425 3.88005 37.88L20.88 20.88C21.4425 20.3182 22.205 20.0026 23 20.0026C23.795 20.0026 24.5575 20.3182 25.12 20.88ZM54.88 20.88C55.4425 20.3182 56.205 20.0026 57 20.0026C57.795 20.0026 58.5575 20.3182 59.12 20.88L76.12 37.88C76.6818 38.4425 76.9974 39.205 76.9974 40C76.9974 40.795 76.6818 41.5575 76.12 42.12L59.12 59.12C58.5513 59.6499 57.7992 59.9384 57.022 59.9247C56.2448 59.911 55.5032 59.5961 54.9536 59.0465C54.4039 58.4968 54.0891 57.7553 54.0753 56.9781C54.0616 56.2009 54.3501 55.4487 54.88 54.88L69.76 40L54.88 25.12C54.3182 24.5575 54.0027 23.795 54.0027 23C54.0027 22.205 54.3182 21.4425 54.88 20.88ZM45.508 8.04398C45.8966 8.11075 46.2682 8.25345 46.6015 8.46392C46.9349 8.67439 47.2235 8.9485 47.4508 9.27059C47.6782 9.59267 47.8398 9.9564 47.9265 10.341C48.0132 10.7256 48.0232 11.1235 47.956 11.512L37.956 69.512C37.8106 70.2864 37.3663 70.9725 36.7192 71.4221C36.0721 71.8717 35.274 72.0486 34.4975 71.9146C33.721 71.7807 33.0284 71.3466 32.5693 70.7061C32.1102 70.0657 31.9216 69.2704 32.044 68.492L42.044 10.492C42.1789 9.70808 42.6196 9.00984 43.2692 8.55078C43.9188 8.09173 44.7241 7.90943 45.508 8.04398Z" fill="#4285F4"/>
</svg>
