<svg width="80" height="80" viewBox="0 0 80 80" fill="none" xmlns="http://www.w3.org/2000/svg">
<path d="M67.5 60C66.3864 60.0051 65.2883 60.2615 64.2875 60.75L53.5375 50H45V55H51.465L60.7525 64.2875C60.2636 65.2882 60.0064 66.3862 60 67.5C60 68.9834 60.4399 70.4334 61.264 71.6668C62.0881 72.9001 63.2594 73.8614 64.6299 74.4291C66.0003 74.9968 67.5083 75.1453 68.9632 74.8559C70.418 74.5665 71.7544 73.8522 72.8033 72.8033C73.8522 71.7544 74.5665 70.418 74.8559 68.9632C75.1453 67.5083 74.9968 66.0003 74.4291 64.6299C73.8614 63.2594 72.9001 62.0881 71.6668 61.264C70.4334 60.4399 68.9834 60 67.5 60ZM67.5 70C67.0055 70 66.5222 69.8534 66.1111 69.5787C65.7 69.304 65.3795 68.9135 65.1903 68.4567C65.0011 67.9999 64.9516 67.4972 65.048 67.0123C65.1445 66.5273 65.3826 66.0819 65.7322 65.7322C66.0819 65.3826 66.5273 65.1445 67.0123 65.048C67.4972 64.9516 67.9999 65.0011 68.4567 65.1903C68.9135 65.3795 69.304 65.7 69.5787 66.1111C69.8534 66.5222 70 67.0056 70 67.5C70 68.163 69.7366 68.7989 69.2678 69.2678C68.7989 69.7366 68.163 70 67.5 70ZM67.5 32.5C65.9539 32.5046 64.4472 32.9877 63.1866 33.8829C61.9261 34.7782 60.9736 36.0417 60.46 37.5H45V42.5H60.46C60.9206 43.7929 61.7276 44.9344 62.7931 45.7997C63.8585 46.6649 65.1412 47.2207 66.5012 47.4063C67.8611 47.5918 69.2458 47.4 70.5041 46.8518C71.7624 46.3035 72.8457 45.42 73.6358 44.2977C74.4259 43.1754 74.8923 41.8575 74.9841 40.4881C75.0759 39.1187 74.7895 37.7503 74.1562 36.5327C73.5229 35.315 72.5671 34.2948 71.3932 33.5836C70.2193 32.8724 68.8725 32.4976 67.5 32.5ZM67.5 42.5C67.0055 42.5 66.5222 42.3534 66.1111 42.0787C65.7 41.804 65.3795 41.4135 65.1903 40.9567C65.0011 40.4999 64.9516 39.9972 65.048 39.5123C65.1445 39.0273 65.3826 38.5819 65.7322 38.2322C66.0819 37.8826 66.5273 37.6445 67.0123 37.548C67.4972 37.4516 67.9999 37.5011 68.4567 37.6903C68.9135 37.8795 69.304 38.2 69.5787 38.6111C69.8534 39.0222 70 39.5056 70 40C70 40.663 69.7366 41.2989 69.2678 41.7678C68.7989 42.2366 68.163 42.5 67.5 42.5ZM67.5 5C65.5115 5.00199 63.605 5.7928 62.1989 7.1989C60.7928 8.60499 60.002 10.5115 60 12.5C60.0085 13.6976 60.307 14.8754 60.87 15.9325L51.49 25H45V30H53.51L64.51 19.37C65.5318 19.8156 66.6402 20.0277 67.7543 19.9909C68.8684 19.9541 69.9604 19.6694 70.9506 19.1573C71.9408 18.6453 72.8043 17.9189 73.4784 17.0311C74.1525 16.1432 74.6201 15.1162 74.8472 14.0248C75.0742 12.9334 75.0551 11.8052 74.7911 10.7221C74.5272 9.63906 74.025 8.6285 73.3212 7.76401C72.6174 6.89951 71.7297 6.20284 70.7227 5.72469C69.7157 5.24655 68.6148 4.99898 67.5 5ZM67.5 15C67.0055 15 66.5222 14.8534 66.1111 14.5787C65.7 14.304 65.3795 13.9135 65.1903 13.4567C65.0011 12.9999 64.9516 12.4972 65.048 12.0123C65.1445 11.5273 65.3826 11.0819 65.7322 10.7322C66.0819 10.3826 66.5273 10.1445 67.0123 10.048C67.4972 9.95158 67.9999 10.0011 68.4567 10.1903C68.9135 10.3795 69.304 10.7 69.5787 11.1111C69.8534 11.5222 70 12.0055 70 12.5C70 13.163 69.7366 13.7989 69.2678 14.2678C68.7989 14.7366 68.163 15 67.5 15Z" fill="#EA4335"/>
<path d="M45 15H50V10H45C43.5753 10.0048 42.1683 10.3157 40.8743 10.9118C39.5802 11.5079 38.4295 12.3753 37.5 13.455C36.5705 12.3753 35.4198 11.5079 34.1257 10.9118C32.8317 10.3157 31.4247 10.0048 30 10H27.5C21.5347 10.0066 15.8155 12.3793 11.5974 16.5974C7.37927 20.8155 5.00662 26.5347 5 32.5V47.5C5.00662 53.4653 7.37927 59.1845 11.5974 63.4026C15.8155 67.6207 21.5347 69.9934 27.5 70H30C31.4247 69.9952 32.8317 69.6843 34.1257 69.0882C35.4198 68.4921 36.5705 67.6247 37.5 66.545C38.4295 67.6247 39.5802 68.4921 40.8743 69.0882C42.1683 69.6843 43.5753 69.9952 45 70H50V65H45C43.6743 64.9987 42.4033 64.4715 41.4659 63.5341C40.5285 62.5967 40.0013 61.3257 40 60V20C40.0013 18.6743 40.5285 17.4033 41.4659 16.4659C42.4033 15.5285 43.6743 15.0013 45 15ZM30 65H27.5C23.2961 64.9925 19.2352 63.473 16.059 60.719C12.8827 57.965 10.8031 54.1604 10.2 50H15V45H10V35H17.5C19.4885 34.998 21.395 34.2072 22.8011 32.8011C24.2072 31.395 24.998 29.4885 25 27.5V22.5H20V27.5C20 28.163 19.7366 28.7989 19.2678 29.2678C18.7989 29.7366 18.163 30 17.5 30H10.2C10.8031 25.8396 12.8827 22.035 16.059 19.281C19.2352 16.527 23.2961 15.0075 27.5 15H30C31.3257 15.0013 32.5967 15.5285 33.5341 16.4659C34.4715 17.4033 34.9987 18.6743 35 20V30H30V35H35V45H30C28.0115 45.002 26.105 45.7928 24.6989 47.1989C23.2928 48.605 22.502 50.5115 22.5 52.5V57.5H27.5V52.5C27.5 51.837 27.7634 51.2011 28.2322 50.7322C28.7011 50.2634 29.337 50 30 50H35V60C34.9987 61.3257 34.4715 62.5967 33.5341 63.5341C32.5967 64.4715 31.3257 64.9987 30 65Z" fill="#EA4335"/>
</svg>
