<svg width="76" height="80" viewBox="0 0 76 80" fill="none" xmlns="http://www.w3.org/2000/svg">
<g clip-path="url(#clip0_24_64)">
<path fill-rule="evenodd" clip-rule="evenodd" d="M27.796 14.6159L50.2662 5.20833L69.6423 25.2409L60.5997 47.7214C45.2649 51.9857 30.981 58.2096 17.4949 65.9245L14.7575 62.513L41.5026 35.8984C42.041 36.1458 42.6248 36.2695 43.2151 36.2695H43.2216C45.5309 36.2695 47.3991 34.3945 47.3991 32.0768C47.3991 29.7656 45.5309 27.8841 43.2216 27.8841C40.9188 27.8841 39.0441 29.7591 39.0441 32.0768C39.0441 32.8255 39.2387 33.5286 39.5825 34.1341L13.1163 60.5273L9.44479 57.1615C17.5209 43.8932 23.6963 29.7461 27.796 14.6159ZM56.6687 0L75.4351 19.2969L73.7225 20.9701L72.01 22.6432L53.2437 3.33984L54.9562 1.66667L56.6687 0ZM12.3184 69.8958C21.1145 78.0208 26.291 74.4792 33.6146 69.4531C39.6733 65.2995 46.9969 60.2799 58.1023 58.6198C58.8937 55.9505 61.3587 54.0039 64.2713 54.0039C67.826 54.0039 70.7062 56.8945 70.7062 60.4622C70.7062 64.03 67.826 66.9206 64.2713 66.9206C61.7738 66.9206 59.6072 65.4948 58.5434 63.4049C48.6056 64.987 41.8788 69.5964 36.3066 73.4115C26.9202 79.8438 20.3621 84.3359 8.86746 73.2552C8.09553 73.5677 7.27171 73.7305 6.4414 73.7305H6.43491C2.88014 73.7305 0 70.8398 0 67.2721C0 63.7044 2.88014 60.8138 6.43491 60.8138C9.98968 60.8138 12.8698 63.7044 12.8698 67.2721V67.2786C12.8698 68.1836 12.6817 69.069 12.3184 69.8958Z" fill="#FBBC05"/>
</g>
<defs>
<clipPath id="clip0_24_64">
<rect width="75.4286" height="80" fill="white"/>
</clipPath>
</defs>
</svg>
